<svg xmlns="http://www.w3.org/2000/svg" viewBox="0 0 64 64" role="img" aria-labelledby="title desc">
  <title id="title">Hexward Mark</title>
  <desc id="desc">Symmetric hex-network emblem.</desc>
  <defs>
    <linearGradient id="frame" x1="0%" y1="0%" x2="100%" y2="100%">
      <stop offset="0%" stop-color="#00ff9d"/>
      <stop offset="100%" stop-color="#607d8b"/>
    </linearGradient>
    <linearGradient id="core" x1="50%" y1="0%" x2="50%" y2="100%">
      <stop offset="0%" stop-color="#b7ffe1"/>
      <stop offset="100%" stop-color="#00ff9d"/>
    </linearGradient>
  </defs>

  <path d="M32 4 L54 16 L54 48 L32 60 L10 48 L10 16 Z" fill="none" stroke="url(#frame)" stroke-width="3.2" stroke-linejoin="round"/>

  <path d="M32 32 L32 12 M32 32 L49 22 M32 32 L49 42 M32 32 L32 52 M32 32 L15 42 M32 32 L15 22" fill="none" stroke="url(#core)" stroke-width="2.8" stroke-linecap="round"/>

  <circle cx="32" cy="32" r="3.8" fill="#00ff9d"/>
  <circle cx="32" cy="12" r="2.6" fill="#8cd7b8"/>
  <circle cx="49" cy="22" r="2.6" fill="#8cd7b8"/>
  <circle cx="49" cy="42" r="2.6" fill="#8cd7b8"/>
  <circle cx="32" cy="52" r="2.6" fill="#8cd7b8"/>
  <circle cx="15" cy="42" r="2.6" fill="#8cd7b8"/>
  <circle cx="15" cy="22" r="2.6" fill="#8cd7b8"/>
</svg>
