<svg xmlns="http://www.w3.org/2000/svg" viewBox="0 0 430 88" role="img" aria-labelledby="title desc" shape-rendering="crispEdges">
  <title id="title">Hexward Consulting Logo</title>
  <desc id="desc">Symmetric pixel crystal emblem with wordmark.</desc>
  <rect x="39" y="4" width="5" height="5" fill="#d8fff0"/>
  <rect x="44" y="4" width="5" height="5" fill="#d8fff0"/>
  <rect x="29" y="9" width="5" height="5" fill="#d8fff0"/>
  <rect x="34" y="9" width="5" height="5" fill="#d8fff0"/>
  <rect x="39" y="9" width="5" height="5" fill="#92e7c9"/>
  <rect x="44" y="9" width="5" height="5" fill="#92e7c9"/>
  <rect x="49" y="9" width="5" height="5" fill="#d8fff0"/>
  <rect x="54" y="9" width="5" height="5" fill="#d8fff0"/>
  <rect x="24" y="14" width="5" height="5" fill="#d8fff0"/>
  <rect x="29" y="14" width="5" height="5" fill="#92e7c9"/>
  <rect x="34" y="14" width="5" height="5" fill="#92e7c9"/>
  <rect x="39" y="14" width="5" height="5" fill="#5f9dad"/>
  <rect x="44" y="14" width="5" height="5" fill="#5f9dad"/>
  <rect x="49" y="14" width="5" height="5" fill="#92e7c9"/>
  <rect x="54" y="14" width="5" height="5" fill="#92e7c9"/>
  <rect x="59" y="14" width="5" height="5" fill="#d8fff0"/>
  <rect x="19" y="19" width="5" height="5" fill="#d8fff0"/>
  <rect x="24" y="19" width="5" height="5" fill="#92e7c9"/>
  <rect x="29" y="19" width="5" height="5" fill="#92e7c9"/>
  <rect x="34" y="19" width="5" height="5" fill="#5f9dad"/>
  <rect x="39" y="19" width="5" height="5" fill="#2b5666"/>
  <rect x="44" y="19" width="5" height="5" fill="#2b5666"/>
  <rect x="49" y="19" width="5" height="5" fill="#5f9dad"/>
  <rect x="54" y="19" width="5" height="5" fill="#92e7c9"/>
  <rect x="59" y="19" width="5" height="5" fill="#92e7c9"/>
  <rect x="64" y="19" width="5" height="5" fill="#d8fff0"/>
  <rect x="14" y="24" width="5" height="5" fill="#d8fff0"/>
  <rect x="19" y="24" width="5" height="5" fill="#92e7c9"/>
  <rect x="24" y="24" width="5" height="5" fill="#92e7c9"/>
  <rect x="29" y="24" width="5" height="5" fill="#5f9dad"/>
  <rect x="34" y="24" width="5" height="5" fill="#2b5666"/>
  <rect x="39" y="24" width="5" height="5" fill="#11242d"/>
  <rect x="44" y="24" width="5" height="5" fill="#11242d"/>
  <rect x="49" y="24" width="5" height="5" fill="#2b5666"/>
  <rect x="54" y="24" width="5" height="5" fill="#5f9dad"/>
  <rect x="59" y="24" width="5" height="5" fill="#92e7c9"/>
  <rect x="64" y="24" width="5" height="5" fill="#92e7c9"/>
  <rect x="69" y="24" width="5" height="5" fill="#d8fff0"/>
  <rect x="9" y="29" width="5" height="5" fill="#d8fff0"/>
  <rect x="14" y="29" width="5" height="5" fill="#92e7c9"/>
  <rect x="19" y="29" width="5" height="5" fill="#92e7c9"/>
  <rect x="24" y="29" width="5" height="5" fill="#5f9dad"/>
  <rect x="29" y="29" width="5" height="5" fill="#2b5666"/>
  <rect x="34" y="29" width="5" height="5" fill="#11242d"/>
  <rect x="39" y="29" width="5" height="5" fill="#11242d"/>
  <rect x="44" y="29" width="5" height="5" fill="#11242d"/>
  <rect x="49" y="29" width="5" height="5" fill="#11242d"/>
  <rect x="54" y="29" width="5" height="5" fill="#2b5666"/>
  <rect x="59" y="29" width="5" height="5" fill="#5f9dad"/>
  <rect x="64" y="29" width="5" height="5" fill="#92e7c9"/>
  <rect x="69" y="29" width="5" height="5" fill="#92e7c9"/>
  <rect x="74" y="29" width="5" height="5" fill="#d8fff0"/>
  <rect x="4" y="34" width="5" height="5" fill="#d8fff0"/>
  <rect x="9" y="34" width="5" height="5" fill="#92e7c9"/>
  <rect x="14" y="34" width="5" height="5" fill="#92e7c9"/>
  <rect x="19" y="34" width="5" height="5" fill="#5f9dad"/>
  <rect x="24" y="34" width="5" height="5" fill="#2b5666"/>
  <rect x="29" y="34" width="5" height="5" fill="#11242d"/>
  <rect x="34" y="34" width="5" height="5" fill="#00ff9d"/>
  <rect x="39" y="34" width="5" height="5" fill="#89ffd3"/>
  <rect x="44" y="34" width="5" height="5" fill="#89ffd3"/>
  <rect x="49" y="34" width="5" height="5" fill="#00ff9d"/>
  <rect x="54" y="34" width="5" height="5" fill="#11242d"/>
  <rect x="59" y="34" width="5" height="5" fill="#2b5666"/>
  <rect x="64" y="34" width="5" height="5" fill="#5f9dad"/>
  <rect x="69" y="34" width="5" height="5" fill="#92e7c9"/>
  <rect x="74" y="34" width="5" height="5" fill="#92e7c9"/>
  <rect x="79" y="34" width="5" height="5" fill="#d8fff0"/>
  <rect x="4" y="39" width="5" height="5" fill="#d8fff0"/>
  <rect x="9" y="39" width="5" height="5" fill="#92e7c9"/>
  <rect x="14" y="39" width="5" height="5" fill="#5f9dad"/>
  <rect x="19" y="39" width="5" height="5" fill="#2b5666"/>
  <rect x="24" y="39" width="5" height="5" fill="#11242d"/>
  <rect x="29" y="39" width="5" height="5" fill="#00ff9d"/>
  <rect x="34" y="39" width="5" height="5" fill="#89ffd3"/>
  <rect x="39" y="39" width="5" height="5" fill="#ffffff"/>
  <rect x="44" y="39" width="5" height="5" fill="#ffffff"/>
  <rect x="49" y="39" width="5" height="5" fill="#89ffd3"/>
  <rect x="54" y="39" width="5" height="5" fill="#00ff9d"/>
  <rect x="59" y="39" width="5" height="5" fill="#11242d"/>
  <rect x="64" y="39" width="5" height="5" fill="#2b5666"/>
  <rect x="69" y="39" width="5" height="5" fill="#5f9dad"/>
  <rect x="74" y="39" width="5" height="5" fill="#92e7c9"/>
  <rect x="79" y="39" width="5" height="5" fill="#d8fff0"/>
  <rect x="4" y="44" width="5" height="5" fill="#d8fff0"/>
  <rect x="9" y="44" width="5" height="5" fill="#92e7c9"/>
  <rect x="14" y="44" width="5" height="5" fill="#5f9dad"/>
  <rect x="19" y="44" width="5" height="5" fill="#2b5666"/>
  <rect x="24" y="44" width="5" height="5" fill="#11242d"/>
  <rect x="29" y="44" width="5" height="5" fill="#00ff9d"/>
  <rect x="34" y="44" width="5" height="5" fill="#89ffd3"/>
  <rect x="39" y="44" width="5" height="5" fill="#ffffff"/>
  <rect x="44" y="44" width="5" height="5" fill="#ffffff"/>
  <rect x="49" y="44" width="5" height="5" fill="#89ffd3"/>
  <rect x="54" y="44" width="5" height="5" fill="#00ff9d"/>
  <rect x="59" y="44" width="5" height="5" fill="#11242d"/>
  <rect x="64" y="44" width="5" height="5" fill="#2b5666"/>
  <rect x="69" y="44" width="5" height="5" fill="#5f9dad"/>
  <rect x="74" y="44" width="5" height="5" fill="#92e7c9"/>
  <rect x="79" y="44" width="5" height="5" fill="#d8fff0"/>
  <rect x="4" y="49" width="5" height="5" fill="#d8fff0"/>
  <rect x="9" y="49" width="5" height="5" fill="#92e7c9"/>
  <rect x="14" y="49" width="5" height="5" fill="#92e7c9"/>
  <rect x="19" y="49" width="5" height="5" fill="#5f9dad"/>
  <rect x="24" y="49" width="5" height="5" fill="#2b5666"/>
  <rect x="29" y="49" width="5" height="5" fill="#11242d"/>
  <rect x="34" y="49" width="5" height="5" fill="#00ff9d"/>
  <rect x="39" y="49" width="5" height="5" fill="#89ffd3"/>
  <rect x="44" y="49" width="5" height="5" fill="#89ffd3"/>
  <rect x="49" y="49" width="5" height="5" fill="#00ff9d"/>
  <rect x="54" y="49" width="5" height="5" fill="#11242d"/>
  <rect x="59" y="49" width="5" height="5" fill="#2b5666"/>
  <rect x="64" y="49" width="5" height="5" fill="#5f9dad"/>
  <rect x="69" y="49" width="5" height="5" fill="#92e7c9"/>
  <rect x="74" y="49" width="5" height="5" fill="#92e7c9"/>
  <rect x="79" y="49" width="5" height="5" fill="#d8fff0"/>
  <rect x="9" y="54" width="5" height="5" fill="#d8fff0"/>
  <rect x="14" y="54" width="5" height="5" fill="#92e7c9"/>
  <rect x="19" y="54" width="5" height="5" fill="#92e7c9"/>
  <rect x="24" y="54" width="5" height="5" fill="#5f9dad"/>
  <rect x="29" y="54" width="5" height="5" fill="#2b5666"/>
  <rect x="34" y="54" width="5" height="5" fill="#11242d"/>
  <rect x="39" y="54" width="5" height="5" fill="#11242d"/>
  <rect x="44" y="54" width="5" height="5" fill="#11242d"/>
  <rect x="49" y="54" width="5" height="5" fill="#11242d"/>
  <rect x="54" y="54" width="5" height="5" fill="#2b5666"/>
  <rect x="59" y="54" width="5" height="5" fill="#5f9dad"/>
  <rect x="64" y="54" width="5" height="5" fill="#92e7c9"/>
  <rect x="69" y="54" width="5" height="5" fill="#92e7c9"/>
  <rect x="74" y="54" width="5" height="5" fill="#d8fff0"/>
  <rect x="14" y="59" width="5" height="5" fill="#d8fff0"/>
  <rect x="19" y="59" width="5" height="5" fill="#92e7c9"/>
  <rect x="24" y="59" width="5" height="5" fill="#92e7c9"/>
  <rect x="29" y="59" width="5" height="5" fill="#5f9dad"/>
  <rect x="34" y="59" width="5" height="5" fill="#2b5666"/>
  <rect x="39" y="59" width="5" height="5" fill="#11242d"/>
  <rect x="44" y="59" width="5" height="5" fill="#11242d"/>
  <rect x="49" y="59" width="5" height="5" fill="#2b5666"/>
  <rect x="54" y="59" width="5" height="5" fill="#5f9dad"/>
  <rect x="59" y="59" width="5" height="5" fill="#92e7c9"/>
  <rect x="64" y="59" width="5" height="5" fill="#92e7c9"/>
  <rect x="69" y="59" width="5" height="5" fill="#d8fff0"/>
  <rect x="19" y="64" width="5" height="5" fill="#d8fff0"/>
  <rect x="24" y="64" width="5" height="5" fill="#92e7c9"/>
  <rect x="29" y="64" width="5" height="5" fill="#92e7c9"/>
  <rect x="34" y="64" width="5" height="5" fill="#5f9dad"/>
  <rect x="39" y="64" width="5" height="5" fill="#2b5666"/>
  <rect x="44" y="64" width="5" height="5" fill="#2b5666"/>
  <rect x="49" y="64" width="5" height="5" fill="#5f9dad"/>
  <rect x="54" y="64" width="5" height="5" fill="#92e7c9"/>
  <rect x="59" y="64" width="5" height="5" fill="#92e7c9"/>
  <rect x="64" y="64" width="5" height="5" fill="#d8fff0"/>
  <rect x="24" y="69" width="5" height="5" fill="#d8fff0"/>
  <rect x="29" y="69" width="5" height="5" fill="#92e7c9"/>
  <rect x="34" y="69" width="5" height="5" fill="#92e7c9"/>
  <rect x="39" y="69" width="5" height="5" fill="#5f9dad"/>
  <rect x="44" y="69" width="5" height="5" fill="#5f9dad"/>
  <rect x="49" y="69" width="5" height="5" fill="#92e7c9"/>
  <rect x="54" y="69" width="5" height="5" fill="#92e7c9"/>
  <rect x="59" y="69" width="5" height="5" fill="#d8fff0"/>
  <rect x="29" y="74" width="5" height="5" fill="#d8fff0"/>
  <rect x="34" y="74" width="5" height="5" fill="#d8fff0"/>
  <rect x="39" y="74" width="5" height="5" fill="#92e7c9"/>
  <rect x="44" y="74" width="5" height="5" fill="#92e7c9"/>
  <rect x="49" y="74" width="5" height="5" fill="#d8fff0"/>
  <rect x="54" y="74" width="5" height="5" fill="#d8fff0"/>
  <rect x="39" y="79" width="5" height="5" fill="#d8fff0"/>
  <rect x="44" y="79" width="5" height="5" fill="#d8fff0"/>
  <text x="104" y="41" fill="#ffffff" font-size="28" font-family="'Roboto Mono', 'Source Code Pro', monospace" font-weight="700" letter-spacing="0.5">HEXWARD</text>
  <text x="104" y="65" fill="#8aa0ab" font-size="16" font-family="'Source Code Pro', monospace" letter-spacing="1.6">CONSULTING</text>
</svg>
